<?xml version="1.0" standalone="no"?>
<!DOCTYPE svg PUBLIC "-//W3C//DTD SVG 20010904//EN"
 "http://www.w3.org/TR/2001/REC-SVG-20010904/DTD/svg10.dtd">
<svg version="1.0" xmlns="http://www.w3.org/2000/svg"
 width="512.000000pt" height="512.000000pt" viewBox="0 0 512.000000 512.000000"
 preserveAspectRatio="xMidYMid meet">
<metadata>
Created by potrace 1.11, written by Peter Selinger 2001-2013
</metadata>
<g transform="translate(0.000000,512.000000) scale(0.100000,-0.100000)"
fill="#000000" stroke="none">
<path d="M0 2860 l0 -2260 2560 0 2560 0 0 2260 0 2260 -2560 0 -2560 0 0
-2260z m615 1270 l0 -55 -45 0 -45 0 -3 58 -3 58 48 -3 48 -3 0 -55z m175 0
l0 -61 -62 3 -63 3 -3 44 c-5 66 -1 71 68 71 l60 0 0 -60z m663 5 c-1 -27 -2
-53 -2 -57 -1 -13 -79 -9 -87 3 -5 9 -8 75 -5 105 1 3 22 4 48 2 l48 -3 -2
-50z m177 -5 l0 -61 -57 3 -58 3 -3 58 -3 57 61 0 60 0 0 -60z m2088 3 l-3
-58 -57 -3 -58 -3 0 61 0 60 60 0 61 0 -3 -57z m162 3 c0 -40 -4 -55 -16 -60
-22 -9 -84 -7 -85 2 -4 61 -4 104 0 107 2 3 26 5 53 5 l48 0 0 -54z m-3262
-258 l3 -127 -25 -7 c-13 -3 -35 -4 -47 -2 -24 3 -24 5 -27 136 l-3 133 48 -3
48 -3 3 -127z m170 0 l-3 -133 -39 -3 c-22 -2 -50 -1 -63 2 -23 6 -23 9 -23
130 0 67 3 126 7 129 3 4 33 7 65 7 l59 0 -3 -132z m664 4 c-1 -67 -4 -127 -7
-132 -8 -13 -72 -13 -80 0 -5 8 -8 165 -5 251 0 6 19 9 46 7 l47 -3 -1 -123z
m176 -4 l-3 -133 -55 0 -55 0 -3 133 -3 132 61 0 61 0 -3 -132z m2090 0 l-3
-133 -55 0 -55 0 -3 133 -3 132 61 0 61 0 -3 -132z m160 3 c2 -93 -1 -126 -10
-133 -18 -11 -76 -10 -83 2 -5 7 -9 206 -6 253 1 4 22 7 49 5 l47 -3 3 -124z
m-1755 -74 c0 -59 -9 -69 -59 -65 l-39 3 -3 58 -3 58 52 -3 52 -3 0 -48z m171
2 c-2 -59 -8 -69 -44 -69 -52 0 -60 8 -60 59 0 26 3 51 7 55 4 4 28 6 52 4
l46 -3 -1 -46z m174 -6 l3 -52 -34 -6 c-19 -4 -45 -5 -58 -3 -22 3 -24 9 -27
61 l-3 58 58 -3 58 -3 3 -52z m606 4 c-2 -59 -11 -69 -60 -65 l-39 3 -3 58 -3
58 53 -3 53 -3 -1 -48z m171 -7 c0 -53 -1 -55 -29 -58 -15 -2 -39 -1 -52 2
-21 6 -24 12 -24 55 0 26 3 51 7 55 4 4 28 6 53 4 l45 -3 0 -55z m175 5 c0
-49 -2 -55 -24 -61 -13 -3 -38 -4 -57 -2 -34 3 -34 3 -37 61 l-3 57 61 0 60 0
0 -55z m805 1 c0 -42 -2 -49 -24 -58 -14 -5 -39 -8 -55 -6 -30 3 -31 4 -34 61
l-3 58 57 -3 58 -3 1 -49z m153 -3 c-3 -52 -5 -58 -27 -61 -12 -2 -34 -1 -47
2 -21 6 -24 12 -24 55 0 26 3 51 7 54 3 4 26 7 50 7 l44 0 -3 -57z m-3760
-255 l3 -127 -26 -7 c-14 -3 -36 -3 -50 0 l-25 6 0 131 0 130 48 -3 47 -3 3
-127z m178 118 c3 -8 2 -67 -3 -133 l-8 -118 -45 -1 c-84 -1 -80 -8 -80 130 0
67 3 126 7 129 3 4 33 7 65 7 41 0 60 -4 64 -14z m156 -37 c1 -27 -1 -54 -6
-60 -6 -5 -29 -9 -53 -9 l-43 0 0 60 0 60 49 0 49 0 4 -51z m172 -9 l1 -55
-50 0 -50 0 -3 44 c-5 66 1 73 55 69 l47 -3 0 -55z m174 6 c4 -58 -4 -66 -70
-66 l-48 0 0 60 0 61 58 -3 57 -3 3 -49z m154 -74 c-1 -67 -4 -127 -7 -132 -8
-12 -51 -13 -73 -1 -15 8 -17 25 -14 136 l3 126 46 -3 46 -3 -1 -123z m176 -4
l-3 -133 -55 0 -55 0 -3 133 -3 132 61 0 61 0 -3 -132z m840 1 l3 -126 -28 -6
c-15 -2 -41 -4 -58 -3 l-30 1 -3 119 c-1 66 0 126 3 133 3 10 20 13 57 11 l53
-3 3 -126z m160 -1 l3 -127 -26 -7 c-14 -3 -36 -3 -50 0 l-25 6 0 131 0 130
48 -3 47 -3 3 -127z m290 3 c2 -81 -1 -127 -8 -131 -6 -4 -34 -6 -63 -6 l-52
1 -3 120 c-1 65 0 125 3 132 3 10 21 13 62 11 l58 -3 3 -124z m160 -3 l3 -127
-35 -6 c-19 -4 -44 -4 -55 0 -20 6 -21 13 -21 136 l0 130 53 -3 52 -3 3 -127z
m640 0 l-3 -133 -55 0 -55 0 -3 133 -3 132 61 0 61 0 -3 -132z m160 0 l3 -127
-37 -7 c-62 -12 -66 -4 -66 134 1 67 1 124 1 128 1 3 22 4 49 2 l47 -3 3 -127z
m170 0 c-3 -131 -3 -133 -27 -136 -12 -2 -34 -1 -47 2 -24 6 -24 8 -24 130 0
67 3 126 7 129 3 4 26 7 50 7 l44 0 -3 -132z m172 3 l0 -130 -46 -7 c-27 -4
-50 -2 -56 4 -7 7 -14 200 -9 255 1 4 26 7 56 7 l55 0 0 -129z m-2097 -75 c0
-55 -14 -69 -66 -64 -32 3 -32 4 -35 61 l-3 58 52 -3 52 -3 0 -49z m171 -1
c-2 -58 -15 -71 -67 -61 l-37 7 0 55 0 55 52 -3 53 -3 -1 -50z m-1679 -185 l0
-55 -45 0 -45 0 -3 58 -3 58 48 -3 48 -3 0 -55z m175 0 l0 -61 -62 3 -63 3 -3
44 c-5 66 -1 71 68 71 l60 0 0 -60z m663 5 c-1 -27 -2 -53 -2 -57 -1 -12 -79
-9 -87 3 -8 13 -12 98 -5 105 3 3 26 4 50 2 l46 -3 -2 -50z m177 -5 l0 -60
-60 0 -60 0 0 60 0 60 60 0 60 0 0 -60z m335 0 l0 -55 -60 0 -60 0 -3 58 -3
58 63 -3 63 -3 0 -55z m163 3 c3 -48 1 -53 -21 -58 -14 -4 -38 -5 -53 -3 -28
3 -29 5 -32 61 l-3 58 53 -3 53 -3 3 -52z m340 0 c3 -48 1 -53 -21 -58 -13 -4
-39 -5 -58 -3 -32 3 -34 5 -37 47 -5 67 0 72 60 69 l53 -3 3 -52z m157 -3 l0
-55 -45 0 -45 0 -3 58 -3 58 48 -3 48 -3 0 -55z m290 0 l0 -55 -60 0 -60 0 -3
58 -3 58 63 -3 63 -3 0 -55z m163 3 c3 -48 1 -53 -21 -58 -14 -4 -38 -5 -53
-3 -28 3 -29 5 -32 61 l-3 58 53 -3 53 -3 3 -52z m642 -3 l0 -60 -60 0 -60 0
0 60 0 60 60 0 60 0 0 -60z m158 3 l-3 -58 -50 0 -49 0 -1 50 c0 28 1 53 3 58
2 4 26 7 53 7 l50 0 -3 -57z m347 2 c1 -27 -4 -53 -9 -57 -6 -4 -32 -8 -58 -8
l-48 0 0 60 0 61 57 -3 57 -3 1 -50z m153 -2 l-3 -58 -45 0 -45 0 -3 44 c-5
64 1 71 53 71 l46 0 -3 -57z m-3763 -183 l0 -55 -47 -3 -48 -3 0 54 c0 29 3
57 7 61 4 4 25 6 48 4 l40 -3 0 -55z m175 0 l0 -61 -62 3 -63 3 -3 44 c-5 66
-1 71 68 71 l60 0 0 -60z m664 0 l0 -55 -49 0 -50 0 1 46 c2 63 8 71 57 67
l41 -3 0 -55z m176 0 l0 -60 -60 0 -60 0 0 60 0 60 60 0 60 0 0 -60z m486 49
c4 -6 7 -32 8 -58 l1 -46 -53 -3 -52 -3 0 54 c0 29 3 57 7 60 11 11 81 8 89
-4z m178 -49 l0 -55 -49 0 -50 0 -3 44 c-5 66 1 73 55 69 l47 -3 0 -55z m164
51 c9 -5 12 -25 10 -57 l-3 -49 -57 -3 -58 -3 0 54 c0 29 3 57 7 60 9 10 85 8
101 -2z m167 -51 l0 -55 -47 -3 -48 -3 0 54 c0 29 3 57 7 61 4 4 25 6 48 4
l40 -3 0 -55z m441 49 c4 -6 7 -32 8 -58 l1 -46 -53 -3 -52 -3 0 54 c0 29 3
57 7 60 11 11 81 8 89 -4z m179 -49 l0 -55 -50 0 -50 0 -3 44 c-5 66 1 73 55
69 l48 -3 0 -55z m170 0 l0 -55 -57 -3 -58 -3 0 54 c0 29 3 57 7 61 4 4 30 6
58 4 l50 -3 0 -55z m305 0 l0 -60 -60 0 -60 0 0 60 0 60 60 0 60 0 0 -60z
m158 -3 l3 -58 -53 3 -52 3 -1 50 c0 28 1 54 3 58 2 4 25 7 50 5 l47 -3 3 -58z
m500 0 l3 -58 -48 3 -48 3 -3 44 c-5 65 1 73 50 69 l43 -3 3 -58z m180 0 l3
-58 -63 3 -63 3 -3 44 c-5 68 0 72 65 69 l58 -3 3 -58z m-3080 -940 c2 -32 -2
-64 -8 -71 -8 -11 -110 -13 -478 -13 -260 0 -475 4 -484 9 -14 7 -18 22 -18
67 0 32 3 60 6 64 3 3 225 5 492 4 l487 -2 3 -58z m460 -9 l-3 -73 -140 -1
c-77 -1 -148 2 -157 7 -14 7 -18 22 -18 62 0 29 5 58 12 65 8 8 58 12 160 12
l149 0 -3 -72z m666 66 c12 -5 16 -21 16 -65 0 -67 -12 -79 -77 -79 -78 0 -83
5 -83 74 0 35 3 66 7 69 8 9 116 9 137 1z m1014 -67 l-3 -72 -395 -1 c-219 -1
-403 3 -412 8 -14 7 -18 21 -18 61 0 29 5 58 12 65 8 8 118 11 415 11 l404 0
-3 -72z m1026 57 c9 -24 7 -93 -4 -114 -9 -17 -29 -18 -322 -18 -194 0 -318 4
-325 10 -13 11 -18 119 -7 131 4 3 152 6 329 6 282 0 324 -2 329 -15z m-3507
-176 c18 -15 18 -261 1 -276 -16 -12 -277 -13 -300 -1 -16 9 -18 26 -18 137 0
84 4 132 12 140 15 15 287 15 305 0z m803 -8 c15 -29 13 -255 -3 -268 -16 -14
-274 -14 -299 -1 -16 9 -18 26 -18 137 0 82 4 132 11 139 8 8 62 12 155 12
131 0 145 -2 154 -19z m668 8 c8 -8 12 -54 12 -140 0 -120 -1 -128 -21 -139
-22 -11 -123 -8 -136 4 -12 12 -3 271 10 279 19 12 122 9 135 -4z m499 4 c7
-4 13 -37 15 -72 l3 -65 158 0 c128 0 160 -3 167 -15 14 -23 12 -116 -3 -128
-16 -14 -614 -14 -639 0 -16 8 -18 25 -18 136 0 82 4 132 11 139 13 13 287 17
306 5z m1031 -71 l3 -73 43 6 c23 4 61 4 84 0 l40 -6 4 -61 c2 -38 -1 -65 -9
-73 -14 -14 -451 -18 -473 -4 -17 11 -15 271 3 282 6 3 76 6 156 5 l146 -2 3
-74z m-3000 -263 c17 -17 17 -259 0 -276 -14 -14 -285 -17 -307 -3 -18 12 -16
271 2 283 21 13 292 9 305 -4z m806 -4 c3 -9 6 -71 6 -139 0 -89 -4 -126 -13
-133 -14 -12 -276 -16 -303 -5 -19 7 -21 279 -1 286 6 3 78 6 158 6 125 1 148
-1 153 -15z m662 8 c7 -4 14 -61 18 -139 8 -152 8 -153 -84 -153 -89 0 -90 2
-90 148 0 86 4 132 12 140 13 13 126 16 144 4z m515 -127 c4 -72 3 -138 -2
-147 -8 -15 -27 -17 -156 -17 -80 1 -152 3 -159 6 -19 7 -20 279 -1 287 6 2
80 4 162 3 l150 -2 6 -130z m1346 124 c8 -7 13 -33 13 -70 l0 -59 73 0 c43 0
78 -5 85 -12 7 -7 12 -39 12 -74 0 -51 -3 -64 -17 -68 -10 -2 -120 -5 -245 -5
-259 0 -253 -1 -246 79 3 31 1 54 -6 59 -7 6 -43 11 -81 13 l-70 3 -3 59 c-2
32 -1 65 2 72 7 17 462 20 483 3z m-3327 -325 c6 -6 10 -38 8 -75 l-3 -64
-154 -3 c-107 -2 -158 1 -168 9 -10 9 -13 29 -11 68 2 46 7 57 26 67 29 15
287 13 302 -2z m975 4 c15 -14 17 -124 3 -135 -8 -7 -96 -12 -244 -15 -271 -4
-267 -5 -262 81 2 46 7 57 26 67 25 12 465 14 477 2z m498 -3 c14 -6 17 -20
17 -70 0 -40 -5 -67 -12 -72 -19 -12 -310 -4 -325 9 -18 15 -16 99 2 125 15
22 21 22 158 19 78 -2 150 -7 160 -11z m508 -5 c5 -8 8 -42 7 -75 l-3 -60
-159 -3 c-111 -2 -163 1 -173 9 -10 9 -13 29 -11 68 4 75 13 79 189 77 112 -1
142 -4 150 -16z m1507 9 c20 -8 22 -15 22 -74 0 -61 -2 -66 -26 -75 -15 -6
-80 -7 -167 -2 l-142 7 0 70 c0 65 1 69 25 75 38 10 262 9 288 -1z m-2183
-183 c20 -7 21 -128 2 -144 -18 -15 -636 -15 -654 0 -8 6 -13 33 -13 67 0 58
6 75 28 82 19 6 620 2 637 -5z m1175 -2 c6 -6 10 -39 8 -80 l-3 -69 -403 -2
c-262 -2 -410 1 -423 7 -15 9 -19 22 -19 69 0 36 5 63 13 70 23 19 808 24 827
5z m858 -11 c17 -24 15 -108 -4 -127 -13 -14 -57 -16 -330 -15 -356 1 -344 -2
-344 78 0 48 13 74 40 84 8 3 152 3 320 1 273 -3 306 -5 318 -21z m-3330 5
c16 -16 16 -120 0 -136 -17 -17 -309 -17 -326 0 -16 16 -16 135 1 141 28 12
313 7 325 -5z"/>
</g>
</svg>
